<?xml version="1.0" encoding="UTF-8"?>
<svg width="484px" height="317px" viewBox="0 0 484 317" version="1.1" xmlns="http://www.w3.org/2000/svg" xmlns:xlink="http://www.w3.org/1999/xlink">
    <!-- Generator: Sketch 52.3 (67297) - http://www.bohemiancoding.com/sketch -->
    <title>arm</title>
    <desc>Created with Sketch.</desc>
    <g id="arm" stroke="none" stroke-width="1" fill="none" fill-rule="evenodd">
        <g transform="translate(1.000000, 89.000000)" fill="#000000" fill-rule="nonzero" id="Shape">
            <path d="M109.057928,3.68932038 L141.530233,3.68932038 L141.530233,135.92233 L109.057928,135.92233 L109.057928,122.135922 C94.7619454,137.864077 77.402537,140 67.3953489,140 C24.5073996,140 0,106.019417 0,69.7087376 C0,26.6019416 31.0427061,0.194174756 67.8038055,0.194174756 C78.015222,0.194174756 95.9873154,2.71844659 109.057928,19.0291262 L109.057928,3.68932038 Z M33.0849895,70.2912619 C33.0849895,93.2038832 48.1978859,112.427184 71.6841438,112.427184 C92.1069767,112.427184 111.100212,98.2524265 111.100212,70.6796115 C111.100212,41.7475727 92.3112051,27.9611649 71.6841438,27.9611649 C48.1978859,27.9611649 33.0849895,46.7961163 33.0849895,70.2912619 Z M179.925158,3.68932038 L212.397463,3.68932038 L212.397463,15.5339805 C216.073573,11.4563107 221.383509,6.99029124 225.876533,4.46601941 C232.207611,0.970873783 238.33446,0 245.686681,0 C253.651586,0 262.229175,1.16504854 271.215222,6.21359221 L257.94038,34.1747572 C250.588161,29.7087378 244.66554,29.514563 241.397886,29.514563 C234.454122,29.514563 227.51036,30.4854368 221.179282,36.699029 C212.193234,45.8252426 212.193234,58.4466017 212.193234,67.1844658 L212.193234,135.728155 L179.72093,135.728155 L179.72093,3.68932038 L179.925158,3.68932038 Z M292.046511,3.68932038 L324.518816,3.68932038 L324.518816,15.9223301 C335.342917,3.30097087 348.209302,0.194174756 358.829175,0.194174756 C373.329387,0.194174756 387.012685,6.79611648 394.773362,19.6116504 C406.414377,3.88349514 423.773784,0.194174756 436.027484,0.194174756 C452.978436,0.194174756 467.682876,7.76699027 475.64778,20.9708737 C478.302749,25.4368931 483,35.1456309 483,54.3689319 L483,136.116505 L450.527696,136.116505 L450.527696,63.3009707 C450.527696,48.5436892 448.893869,42.5242717 447.46427,39.8058251 C445.421988,34.7572815 440.520508,28.1553397 428.879492,28.1553397 C420.914588,28.1553397 413.970825,32.2330096 409.682029,37.8640775 C403.963637,45.436893 403.350951,56.6990289 403.350951,67.9611648 L403.350951,136.116505 L370.878647,136.116505 L370.878647,63.3009707 C370.878647,48.5436892 369.24482,42.5242717 367.815222,39.8058251 C365.772939,34.7572815 360.871459,28.1553397 349.230444,28.1553397 C341.26554,28.1553397 334.321776,32.2330096 330.032981,37.8640775 C324.314588,45.436893 323.701903,56.6990289 323.701903,67.9611648 L323.701903,136.116505 L292.046511,136.116505 L292.046511,3.68932038 Z"></path>
        </g>
    </g>
</svg>